<?xml version="1.0" encoding="iso-8859-1"?>
<!-- Uploaded to: SVG Repo, www.svgrepo.com, Generator: SVG Repo Mixer Tools -->
<svg version="1.1" id="Layer_1" xmlns="http://www.w3.org/2000/svg" xmlns:xlink="http://www.w3.org/1999/xlink" 
	 viewBox="0 0 511.999 511.999" xml:space="preserve">
<path d="M351.5,489.906c-0.996,0-2.007-0.106-2.987-0.305c-0.98-0.201-1.946-0.49-2.865-0.873c-0.933-0.383-1.821-0.859-2.649-1.409
	c-0.843-0.551-1.625-1.195-2.33-1.9c-0.705-0.705-1.348-1.486-1.898-2.328c-0.551-0.827-1.028-1.733-1.411-2.65
	c-0.383-0.918-0.688-1.883-0.872-2.865c-0.199-0.98-0.306-1.991-0.306-2.987c0-1.01,0.107-2.007,0.306-3.003
	c0.184-0.98,0.489-1.93,0.872-2.865c0.383-0.919,0.844-1.808,1.394-2.635c0.567-0.843,1.21-1.624,1.915-2.344
	c0.705-0.705,1.487-1.331,2.33-1.898c0.827-0.551,1.716-1.026,2.649-1.409c0.921-0.383,1.884-0.674,2.865-0.873
	c1.976-0.398,4.014-0.398,5.99,0c0.965,0.199,1.93,0.49,2.865,0.873c0.919,0.383,1.808,0.858,2.635,1.409
	c0.843,0.567,1.625,1.193,2.33,1.898c0.705,0.722,1.348,1.501,1.898,2.344c0.567,0.827,1.026,1.716,1.409,2.635
	c0.383,0.934,0.689,1.884,0.873,2.865c0.199,0.996,0.306,1.993,0.306,3.003c0,0.996-0.107,2.008-0.306,2.987
	c-0.184,0.982-0.49,1.947-0.873,2.865c-0.383,0.918-0.843,1.823-1.409,2.65c-0.55,0.843-1.193,1.624-1.898,2.328
	c-0.705,0.705-1.487,1.348-2.33,1.9c-0.827,0.55-1.716,1.026-2.635,1.409c-0.934,0.383-1.9,0.673-2.865,0.873
	C353.507,489.8,352.497,489.906,351.5,489.906z"/>
<path d="M496.681,489.906c-0.994,0-2.007-0.106-3.003-0.305c-0.965-0.201-1.93-0.49-2.863-0.873
	c-0.921-0.383-1.809-0.859-2.636-1.409c-0.843-0.551-1.624-1.195-2.329-1.9c-0.722-0.705-1.348-1.486-1.915-2.328
	c-0.551-0.827-1.026-1.733-1.409-2.65c-0.383-0.918-0.674-1.883-0.873-2.865c-0.199-0.98-0.291-1.991-0.291-2.987
	c0-1.01,0.093-2.007,0.291-3.003c0.199-0.98,0.49-1.93,0.873-2.865c0.383-0.919,0.858-1.808,1.409-2.635
	c0.567-0.843,1.193-1.624,1.915-2.344c0.705-0.705,1.486-1.331,2.329-1.898c0.827-0.551,1.716-1.026,2.636-1.409
	c0.933-0.383,1.898-0.674,2.863-0.873c4.979-0.996,10.279,0.628,13.833,4.181c0.705,0.722,1.348,1.501,1.9,2.344
	c0.551,0.827,1.026,1.716,1.409,2.635c0.383,0.934,0.674,1.884,0.873,2.865c0.199,0.996,0.305,1.993,0.305,3.003
	c0,0.996-0.106,2.008-0.305,2.987c-0.199,0.982-0.49,1.947-0.873,2.865c-0.383,0.918-0.858,1.823-1.409,2.65
	c-0.551,0.843-1.195,1.624-1.9,2.329C504.662,488.268,500.711,489.906,496.681,489.906z"/>
<rect x="314.887" y="225.636" style="fill:#D8766A;" width="181.794" height="69.709"/>
<path d="M160.5,489.906c-0.996,0-2.007-0.106-2.987-0.305c-0.98-0.201-1.946-0.49-2.88-0.873c-0.919-0.383-1.808-0.859-2.635-1.409
	c-0.843-0.551-1.624-1.195-2.329-1.9c-0.705-0.705-1.348-1.486-1.915-2.328c-0.551-0.827-1.011-1.733-1.394-2.65
	c-0.383-0.918-0.689-1.883-0.889-2.865c-0.184-0.98-0.291-1.991-0.291-2.987c0-1.01,0.107-2.007,0.291-3.003
	c0.199-0.98,0.49-1.93,0.873-2.865c0.383-0.919,0.858-1.808,1.409-2.635c0.567-0.843,1.21-1.624,1.915-2.344
	c0.705-0.705,1.486-1.331,2.329-1.898c0.827-0.551,1.716-1.026,2.635-1.409c0.934-0.383,1.9-0.674,2.865-0.873
	c1.976-0.398,4.014-0.398,5.99,0c0.98,0.199,1.946,0.49,2.865,0.873c0.934,0.383,1.823,0.858,2.65,1.409
	c0.843,0.567,1.624,1.193,2.329,1.898c0.705,0.722,1.348,1.501,1.9,2.344c0.551,0.827,1.026,1.716,1.409,2.635
	c0.383,0.934,0.674,1.884,0.873,2.865c0.199,0.996,0.306,1.993,0.306,3.003c0,0.996-0.107,2.008-0.306,2.987
	c-0.199,0.982-0.49,1.947-0.873,2.865c-0.383,0.918-0.858,1.823-1.409,2.65c-0.551,0.843-1.195,1.624-1.9,2.328
	c-0.705,0.705-1.486,1.348-2.329,1.9c-0.827,0.55-1.716,1.026-2.65,1.409c-0.919,0.383-1.884,0.673-2.865,0.873
	C162.507,489.8,161.496,489.906,160.5,489.906z"/>
<path d="M15.319,489.906c-0.996,0-2.007-0.106-2.987-0.305c-0.98-0.201-1.946-0.49-2.865-0.873c-0.934-0.383-1.823-0.859-2.65-1.409
	c-0.843-0.551-1.624-1.195-2.329-1.9c-0.705-0.705-1.348-1.486-1.9-2.328c-0.551-0.827-1.026-1.733-1.409-2.65
	c-0.383-0.918-0.674-1.883-0.873-2.865C0.107,476.595,0,475.584,0,474.588c0-1.01,0.107-2.007,0.306-3.003
	c0.199-0.98,0.49-1.93,0.873-2.865c0.383-0.919,0.858-1.808,1.409-2.635c0.551-0.843,1.195-1.624,1.9-2.344
	c0.705-0.705,1.486-1.331,2.329-1.898c0.827-0.551,1.716-1.026,2.65-1.409c0.919-0.383,1.884-0.674,2.865-0.873
	c1.976-0.398,4.014-0.398,5.99,0c0.965,0.199,1.93,0.49,2.865,0.873c0.919,0.383,1.808,0.858,2.635,1.409
	c0.843,0.567,1.624,1.193,2.329,1.898c0.705,0.722,1.348,1.501,1.915,2.344c0.551,0.827,1.026,1.716,1.409,2.635
	c0.383,0.934,0.674,1.884,0.858,2.865c0.199,0.996,0.306,1.993,0.306,3.003c0,0.996-0.107,2.008-0.306,2.987
	c-0.184,0.982-0.475,1.947-0.858,2.865c-0.383,0.918-0.858,1.823-1.409,2.65c-0.567,0.843-1.21,1.624-1.915,2.328
	c-0.705,0.705-1.486,1.348-2.329,1.9c-0.827,0.55-1.716,1.026-2.635,1.409c-0.934,0.383-1.9,0.673-2.865,0.873
	C17.326,489.8,16.315,489.906,15.319,489.906z"/>
<g>
	<rect x="15.319" y="225.636" style="fill:#D8766A;" width="181.794" height="69.709"/>
	<rect x="61.122" y="89.372" style="fill:#D8766A;" width="381.25" height="74.176"/>
</g>
<rect x="106.208" y="164.314" style="fill:#F4D15A;" width="298.725" height="61.338"/>
<path d="M496.679,22.093c-8.459,0-15.319,6.86-15.319,15.319v172.913h-61.099v-31.466h22.116c8.459,0,15.319-6.86,15.319-15.319
	V89.366c0-8.459-6.86-15.319-15.319-15.319H61.121c-8.461,0-15.319,6.86-15.319,15.319v74.174c0,8.459,6.858,15.319,15.319,15.319
	h29.776v31.466H30.642V37.412c0-8.459-6.858-15.319-15.319-15.319S0.003,28.953,0.003,37.412v188.232v69.707v133.273
	c0,8.459,6.858,15.319,15.319,15.319s15.319-6.86,15.319-15.319V310.671h60.255v163.911c0,8.459,6.858,15.319,15.319,15.319
	s15.319-6.86,15.319-15.319V310.671h23.644v117.954c0,8.459,6.858,15.319,15.319,15.319c8.461,0,15.319-6.86,15.319-15.319V310.671
	h21.292c8.461,0,15.319-6.86,15.319-15.319v-54.388h87.141v54.388c0,8.459,6.86,15.319,15.319,15.319h21.292v117.954
	c0,8.459,6.86,15.319,15.319,15.319s15.319-6.86,15.319-15.319V310.671h22.801v163.911c0,8.459,6.86,15.319,15.319,15.319
	c8.459,0,15.319-6.86,15.319-15.319V310.671h61.099v117.954c0,8.459,6.86,15.319,15.319,15.319s15.319-6.86,15.319-15.319V295.351
	v-69.707V37.412C511.998,28.951,505.138,22.093,496.679,22.093z M76.44,104.685h350.616v43.536H76.44V104.685z M121.535,179.628
	h268.087v30.697H314.89H197.111h-75.576V179.628z M30.642,280.032v-39.069h60.255v39.069H30.642z M181.79,280.032h-21.292h-38.963
	v-39.069h60.255V280.032z M351.502,280.032H330.21v-39.069h59.413v39.069H351.502z M420.261,280.032v-39.069h61.099v39.069H420.261z
	"/>
</svg>